<mxfile host="app.diagrams.net" modified="2023-12-27T06:45:32.274Z" agent="Mozilla/5.0 (X11; Ubuntu; Linux x86_64; rv:120.0) Gecko/20100101 Firefox/120.0" etag="M_vc6L8ynT8boi11Jbfs" version="22.1.11" type="github">
  <diagram name="第 1 页" id="RcYCrghBmFvPSSh3XzJO">
    <mxGraphModel dx="1250" dy="772" grid="1" gridSize="10" guides="1" tooltips="1" connect="1" arrows="1" fold="1" page="1" pageScale="1" pageWidth="827" pageHeight="1169" math="1" shadow="0">
      <root>
        <mxCell id="0" />
        <mxCell id="1" parent="0" />
        <mxCell id="28xx1SLFNbe6EIuXEr-e-31" value="" style="rounded=1;whiteSpace=wrap;html=1;fillColor=#fad7ac;strokeColor=#b46504;dashed=1;dashPattern=12 12;shadow=1;" vertex="1" parent="1">
          <mxGeometry x="40" y="500" width="720" height="580" as="geometry" />
        </mxCell>
        <mxCell id="28xx1SLFNbe6EIuXEr-e-13" value="" style="rounded=1;whiteSpace=wrap;html=1;fillColor=#bac8d3;strokeColor=#23445d;dashed=1;dashPattern=12 12;shadow=1;" vertex="1" parent="1">
          <mxGeometry x="40" y="40" width="720" height="460" as="geometry" />
        </mxCell>
        <mxCell id="28xx1SLFNbe6EIuXEr-e-3" value="" style="edgeStyle=orthogonalEdgeStyle;rounded=0;orthogonalLoop=1;jettySize=auto;html=1;sketch=1;curveFitting=1;jiggle=2;shadow=1;" edge="1" parent="1" source="28xx1SLFNbe6EIuXEr-e-1" target="28xx1SLFNbe6EIuXEr-e-2">
          <mxGeometry relative="1" as="geometry" />
        </mxCell>
        <mxCell id="28xx1SLFNbe6EIuXEr-e-1" value="马尔可夫链" style="rounded=0;whiteSpace=wrap;html=1;sketch=1;curveFitting=1;jiggle=2;shadow=1;" vertex="1" parent="1">
          <mxGeometry x="260" y="50" width="120" height="60" as="geometry" />
        </mxCell>
        <mxCell id="28xx1SLFNbe6EIuXEr-e-7" style="edgeStyle=orthogonalEdgeStyle;rounded=0;orthogonalLoop=1;jettySize=auto;html=1;entryX=0;entryY=0.5;entryDx=0;entryDy=0;sketch=1;curveFitting=1;jiggle=2;shadow=1;" edge="1" parent="1" source="28xx1SLFNbe6EIuXEr-e-2" target="28xx1SLFNbe6EIuXEr-e-5">
          <mxGeometry relative="1" as="geometry" />
        </mxCell>
        <mxCell id="28xx1SLFNbe6EIuXEr-e-10" value="" style="edgeStyle=orthogonalEdgeStyle;rounded=0;orthogonalLoop=1;jettySize=auto;html=1;sketch=1;curveFitting=1;jiggle=2;shadow=1;" edge="1" parent="1" source="28xx1SLFNbe6EIuXEr-e-2" target="28xx1SLFNbe6EIuXEr-e-9">
          <mxGeometry relative="1" as="geometry">
            <Array as="points">
              <mxPoint x="320" y="440" />
            </Array>
          </mxGeometry>
        </mxCell>
        <mxCell id="28xx1SLFNbe6EIuXEr-e-2" value="`Q`值和`V`值" style="rounded=0;whiteSpace=wrap;html=1;sketch=1;curveFitting=1;jiggle=2;shadow=1;" vertex="1" parent="1">
          <mxGeometry x="260" y="170" width="120" height="60" as="geometry" />
        </mxCell>
        <mxCell id="28xx1SLFNbe6EIuXEr-e-5" value="蒙特卡洛(MC)" style="rounded=0;whiteSpace=wrap;html=1;sketch=1;curveFitting=1;jiggle=2;shadow=1;" vertex="1" parent="1">
          <mxGeometry x="380" y="290" width="120" height="60" as="geometry" />
        </mxCell>
        <mxCell id="28xx1SLFNbe6EIuXEr-e-12" value="" style="edgeStyle=orthogonalEdgeStyle;rounded=0;orthogonalLoop=1;jettySize=auto;html=1;sketch=1;curveFitting=1;jiggle=2;shadow=1;" edge="1" parent="1" source="28xx1SLFNbe6EIuXEr-e-9" target="28xx1SLFNbe6EIuXEr-e-11">
          <mxGeometry relative="1" as="geometry" />
        </mxCell>
        <mxCell id="28xx1SLFNbe6EIuXEr-e-9" value="时序差分(TD)" style="rounded=0;whiteSpace=wrap;html=1;sketch=1;curveFitting=1;jiggle=2;shadow=1;" vertex="1" parent="1">
          <mxGeometry x="380" y="410" width="120" height="60" as="geometry" />
        </mxCell>
        <mxCell id="28xx1SLFNbe6EIuXEr-e-16" value="" style="edgeStyle=orthogonalEdgeStyle;rounded=0;orthogonalLoop=1;jettySize=auto;html=1;sketch=1;curveFitting=1;jiggle=2;shadow=1;" edge="1" parent="1" source="28xx1SLFNbe6EIuXEr-e-11" target="28xx1SLFNbe6EIuXEr-e-15">
          <mxGeometry relative="1" as="geometry" />
        </mxCell>
        <mxCell id="28xx1SLFNbe6EIuXEr-e-11" value="Qlearning" style="rounded=0;whiteSpace=wrap;html=1;sketch=1;curveFitting=1;jiggle=2;shadow=1;" vertex="1" parent="1">
          <mxGeometry x="380" y="530" width="120" height="60" as="geometry" />
        </mxCell>
        <mxCell id="28xx1SLFNbe6EIuXEr-e-19" style="edgeStyle=orthogonalEdgeStyle;rounded=0;orthogonalLoop=1;jettySize=auto;html=1;sketch=1;curveFitting=1;jiggle=2;shadow=1;" edge="1" parent="1" source="28xx1SLFNbe6EIuXEr-e-14" target="28xx1SLFNbe6EIuXEr-e-17">
          <mxGeometry relative="1" as="geometry" />
        </mxCell>
        <mxCell id="28xx1SLFNbe6EIuXEr-e-14" value="梯度策略(PG)" style="rounded=0;whiteSpace=wrap;html=1;sketch=1;curveFitting=1;jiggle=2;shadow=1;" vertex="1" parent="1">
          <mxGeometry x="180" y="650" width="120" height="60" as="geometry" />
        </mxCell>
        <mxCell id="28xx1SLFNbe6EIuXEr-e-18" style="edgeStyle=orthogonalEdgeStyle;rounded=0;orthogonalLoop=1;jettySize=auto;html=1;sketch=1;curveFitting=1;jiggle=2;shadow=1;" edge="1" parent="1" source="28xx1SLFNbe6EIuXEr-e-15" target="28xx1SLFNbe6EIuXEr-e-17">
          <mxGeometry relative="1" as="geometry" />
        </mxCell>
        <mxCell id="28xx1SLFNbe6EIuXEr-e-28" style="edgeStyle=orthogonalEdgeStyle;rounded=0;orthogonalLoop=1;jettySize=auto;html=1;sketch=1;curveFitting=1;jiggle=2;shadow=1;" edge="1" parent="1" source="28xx1SLFNbe6EIuXEr-e-15" target="28xx1SLFNbe6EIuXEr-e-27">
          <mxGeometry relative="1" as="geometry" />
        </mxCell>
        <mxCell id="28xx1SLFNbe6EIuXEr-e-15" value="DQN" style="rounded=0;whiteSpace=wrap;html=1;sketch=1;curveFitting=1;jiggle=2;shadow=1;" vertex="1" parent="1">
          <mxGeometry x="380" y="650" width="120" height="60" as="geometry" />
        </mxCell>
        <mxCell id="28xx1SLFNbe6EIuXEr-e-22" style="edgeStyle=orthogonalEdgeStyle;rounded=0;orthogonalLoop=1;jettySize=auto;html=1;sketch=1;curveFitting=1;jiggle=2;shadow=1;" edge="1" parent="1" source="28xx1SLFNbe6EIuXEr-e-17" target="28xx1SLFNbe6EIuXEr-e-20">
          <mxGeometry relative="1" as="geometry" />
        </mxCell>
        <mxCell id="28xx1SLFNbe6EIuXEr-e-23" style="edgeStyle=orthogonalEdgeStyle;rounded=0;orthogonalLoop=1;jettySize=auto;html=1;sketch=1;curveFitting=1;jiggle=2;shadow=1;" edge="1" parent="1" source="28xx1SLFNbe6EIuXEr-e-17" target="28xx1SLFNbe6EIuXEr-e-21">
          <mxGeometry relative="1" as="geometry" />
        </mxCell>
        <mxCell id="28xx1SLFNbe6EIuXEr-e-17" value="AC" style="rounded=0;whiteSpace=wrap;html=1;sketch=1;curveFitting=1;jiggle=2;shadow=1;" vertex="1" parent="1">
          <mxGeometry x="280" y="770" width="120" height="60" as="geometry" />
        </mxCell>
        <mxCell id="28xx1SLFNbe6EIuXEr-e-25" value="" style="edgeStyle=orthogonalEdgeStyle;rounded=0;orthogonalLoop=1;jettySize=auto;html=1;sketch=1;curveFitting=1;jiggle=2;shadow=1;" edge="1" parent="1" source="28xx1SLFNbe6EIuXEr-e-20" target="28xx1SLFNbe6EIuXEr-e-24">
          <mxGeometry relative="1" as="geometry" />
        </mxCell>
        <mxCell id="28xx1SLFNbe6EIuXEr-e-20" value="PPO" style="rounded=0;whiteSpace=wrap;html=1;sketch=1;curveFitting=1;jiggle=2;shadow=1;" vertex="1" parent="1">
          <mxGeometry x="180" y="890" width="120" height="60" as="geometry" />
        </mxCell>
        <mxCell id="28xx1SLFNbe6EIuXEr-e-21" value="A3C" style="rounded=0;whiteSpace=wrap;html=1;sketch=1;curveFitting=1;jiggle=2;shadow=1;" vertex="1" parent="1">
          <mxGeometry x="380" y="890" width="120" height="60" as="geometry" />
        </mxCell>
        <mxCell id="28xx1SLFNbe6EIuXEr-e-24" value="DPPO" style="rounded=0;whiteSpace=wrap;html=1;sketch=1;curveFitting=1;jiggle=2;shadow=1;" vertex="1" parent="1">
          <mxGeometry x="180" y="1010" width="120" height="60" as="geometry" />
        </mxCell>
        <mxCell id="28xx1SLFNbe6EIuXEr-e-30" style="edgeStyle=orthogonalEdgeStyle;rounded=0;orthogonalLoop=1;jettySize=auto;html=1;entryX=0.5;entryY=0;entryDx=0;entryDy=0;sketch=1;curveFitting=1;jiggle=2;shadow=1;" edge="1" parent="1" source="28xx1SLFNbe6EIuXEr-e-27" target="28xx1SLFNbe6EIuXEr-e-29">
          <mxGeometry relative="1" as="geometry" />
        </mxCell>
        <mxCell id="28xx1SLFNbe6EIuXEr-e-27" value="DDPG" style="rounded=0;whiteSpace=wrap;html=1;sketch=1;curveFitting=1;jiggle=2;shadow=1;" vertex="1" parent="1">
          <mxGeometry x="540" y="770" width="120" height="60" as="geometry" />
        </mxCell>
        <mxCell id="28xx1SLFNbe6EIuXEr-e-29" value="TD3" style="rounded=0;whiteSpace=wrap;html=1;sketch=1;curveFitting=1;jiggle=2;shadow=1;" vertex="1" parent="1">
          <mxGeometry x="540" y="1010" width="120" height="60" as="geometry" />
        </mxCell>
      </root>
    </mxGraphModel>
  </diagram>
</mxfile>
